<svg xmlns="http://www.w3.org/2000/svg" viewBox="0 0 32 32">
  <rect width="32" height="32" rx="6" fill="#002868"/>
  <g>
    <rect y="0" width="32" height="2.46" fill="#BF0A30"/>
    <rect y="2.46" width="32" height="2.46" fill="#fff"/>
    <rect y="4.92" width="32" height="2.46" fill="#BF0A30"/>
    <rect y="7.38" width="32" height="2.46" fill="#fff"/>
    <rect y="9.85" width="32" height="2.46" fill="#BF0A30"/>
    <rect y="12.31" width="32" height="2.46" fill="#fff"/>
    <rect y="14.77" width="32" height="2.46" fill="#BF0A30"/>
    <rect y="17.23" width="32" height="2.46" fill="#fff"/>
    <rect y="19.69" width="32" height="2.46" fill="#BF0A30"/>
    <rect y="22.15" width="32" height="2.46" fill="#fff"/>
    <rect y="24.62" width="32" height="2.46" fill="#BF0A30"/>
    <rect y="27.08" width="32" height="2.46" fill="#fff"/>
    <rect y="29.54" width="32" height="2.46" fill="#BF0A30"/>
  </g>
  <rect width="14" height="17.23" fill="#002868"/>
  <g fill="#fff" font-family="sans-serif" font-size="2.2">
    <text x="1.5" y="3.2">★</text><text x="4.3" y="3.2">★</text><text x="7.1" y="3.2">★</text><text x="9.9" y="3.2">★</text><text x="12.0" y="3.2">★</text>
    <text x="2.9" y="5.5">★</text><text x="5.7" y="5.5">★</text><text x="8.5" y="5.5">★</text><text x="11.0" y="5.5">★</text>
    <text x="1.5" y="7.8">★</text><text x="4.3" y="7.8">★</text><text x="7.1" y="7.8">★</text><text x="9.9" y="7.8">★</text><text x="12.0" y="7.8">★</text>
    <text x="2.9" y="10.1">★</text><text x="5.7" y="10.1">★</text><text x="8.5" y="10.1">★</text><text x="11.0" y="10.1">★</text>
    <text x="1.5" y="12.4">★</text><text x="4.3" y="12.4">★</text><text x="7.1" y="12.4">★</text><text x="9.9" y="12.4">★</text><text x="12.0" y="12.4">★</text>
    <text x="2.9" y="14.7">★</text><text x="5.7" y="14.7">★</text><text x="8.5" y="14.7">★</text><text x="11.0" y="14.7">★</text>
    <text x="1.5" y="17.0">★</text><text x="4.3" y="17.0">★</text><text x="7.1" y="17.0">★</text><text x="9.9" y="17.0">★</text><text x="12.0" y="17.0">★</text>
  </g>
</svg>
